<svg width="50" height="52" viewBox="0 0 50 52" fill="none" xmlns="http://www.w3.org/2000/svg">
<path fill-rule="evenodd" clip-rule="evenodd" d="M25.0012 51.8327H24.9911C20.513 51.8335 16.1171 50.5962 12.2641 48.2504L11.3536 47.6941L1.88934 50.2469L4.41602 40.7636L3.82166 39.7913C1.31796 35.6953 -0.00695231 30.9547 2.74356e-05 26.1174C0.00508584 11.9496 11.2196 0.422969 25.0113 0.422969C28.2962 0.412709 31.5503 1.07367 34.5844 2.36744C37.6186 3.6612 40.3723 5.56196 42.6854 7.95922C45.0135 10.3412 46.8587 13.1742 48.1143 16.2943C49.3698 19.4143 50.0107 22.7593 49.9999 26.1356C49.9948 40.3035 38.7803 51.8327 25.0012 51.8327Z" fill="#299987"/>
<path d="M35.7832 30.9206C35.191 30.62 32.2877 29.1715 31.7472 28.9698C31.2067 28.768 30.8132 28.6712 30.4177 29.2724C30.0243 29.8716 28.8936 31.2212 28.5498 31.6207C28.204 32.0222 27.8602 32.0706 27.27 31.772C26.6798 31.4694 24.7761 30.8379 22.5206 28.7963C20.766 27.2065 19.5796 25.2435 19.2358 24.6423C18.892 24.0432 19.1981 23.7184 19.4941 23.4198C19.7604 23.1515 20.0843 22.7197 20.3804 22.3707C20.6765 22.0217 20.7739 21.7695 20.9706 21.368C21.1694 20.9686 21.07 20.6196 20.921 20.319C20.7739 20.0184 19.5935 17.0668 19.1007 15.8665C18.6218 14.6984 18.1349 14.8577 17.7732 14.8376C17.4275 14.8214 17.034 14.8174 16.6405 14.8174C16.2471 14.8174 15.6072 14.9667 15.0667 15.5679C14.5242 16.1671 13 17.6176 13 20.5691C13 23.5186 15.1144 26.3693 15.4105 26.7707C15.7066 27.1722 19.5736 33.2266 25.4975 35.823C26.9084 36.4404 28.0073 36.8096 28.8638 37.0839C30.2786 37.5419 31.5664 37.4773 32.5838 37.322C33.7165 37.1505 36.0773 35.8715 36.5701 34.4713C37.0629 33.0712 37.0609 31.8709 36.9139 31.6207C36.7668 31.3705 36.3734 31.2212 35.7812 30.9206" stroke="white" stroke-width="2"/>
</svg>
