<svg width="51" height="50" viewBox="0 0 51 50" fill="none" xmlns="http://www.w3.org/2000/svg">
<path d="M25.8027 0C39.6099 0 50.8027 11.1929 50.8027 25C50.8027 38.8071 39.6099 50 25.8027 50C11.9956 50 0.802734 38.8071 0.802734 25C0.802734 11.1929 11.9956 0 25.8027 0Z" fill="#299987"/>
<path d="M33.3135 14.1377C33.7352 14.0019 34.1711 13.9512 34.5928 14.0557C35.1059 14.1828 35.463 14.5058 35.6797 14.8721C36.0608 15.5161 36.0252 16.3032 35.9551 16.7373L35.9492 16.7725C34.8968 22.0812 32.735 32.9948 32.499 34.2305C32.4176 34.6568 32.2609 35.0499 31.9951 35.3652C31.719 35.6927 31.3684 35.8846 31.0049 35.9609C30.3385 36.1007 29.7334 35.8413 29.4092 35.6387L29.3584 35.6074L29.3125 35.5703L25.542 32.5361C25.1675 32.2348 24.6358 32.2439 24.2734 32.5469L24.2031 32.6113L22.5625 34.2676C22.3931 34.438 22.1912 34.6111 21.958 34.7236C21.7275 34.8348 21.2684 34.9712 20.8105 34.6865C20.4076 34.4359 20.3066 34.0347 20.2783 33.877C20.2479 33.7073 20.2538 33.5488 20.2666 33.4268H20.2656L20.6484 28.7656L20.6826 28.502C20.7876 27.8925 21.0786 27.3281 21.5205 26.8877L24.4609 23.9512L20.2441 26.8232C19.5053 27.3264 18.5861 27.4703 17.7354 27.2314L17.5654 27.1787C16.5768 26.8375 15.3054 26.4058 14.3135 26.0879L13.4355 25.8154C13.0565 25.7034 12.6668 25.5259 12.3818 25.2139C12.0522 24.8527 11.9429 24.398 12.0283 23.9658C12.1019 23.5941 12.3038 23.3068 12.4639 23.1221C12.6341 22.9256 12.8287 22.7614 13.0029 22.6367L13.1289 22.5537C13.2538 22.4772 13.3733 22.4213 13.4766 22.3779L25.0117 17.5518C28.9899 15.8931 32.3996 14.4806 33.1338 14.2012L33.3135 14.1377Z" stroke="white" stroke-width="2"/>
</svg>
